<?xml version="1.0" encoding="UTF-8"?>
<svg id="_레이어_2" data-name="레이어 2" xmlns="http://www.w3.org/2000/svg" viewBox="0 0 800 800">
  <defs>
    <style>
      .cls-1 {
        fill: #02459a;
      }

      .cls-1, .cls-2, .cls-3 {
        stroke-width: 0px;
      }

      .cls-2 {
        fill: #fff;
      }

      .cls-3 {
        fill: #e83a2a;
      }
    </style>
  </defs>
  <g id="_레이어_1-2" data-name="레이어 1">
    <g>
      <circle class="cls-1" cx="400" cy="400" r="400"/>
      <path class="cls-3" d="M169.49,640.38c-11.61,0-20.23-3.44-25.98-10.29-11.61-13.86-7.54-36.48,12.43-69.16,7.1-11.44,14.83-22.57,23.03-33.14,9.93-12.99,21.83-27.23,35.33-42.26,4.61-5.14,12.52-5.56,17.65-.95,5.14,4.61,5.56,12.51.95,17.65-13.06,14.55-24.54,28.28-34.12,40.81-7.71,9.95-14.95,20.36-21.55,31-19.4,31.74-14.62,39.92-14.56,39.99,1.74,2.08,17.81,5.25,64.48-17.28,6.22-3,13.69-.39,16.69,5.82,3,6.22.39,13.69-5.82,16.69-29.2,14.09-51.92,21.12-68.53,21.12Z"/>
      <path class="cls-2" d="M473.01,643.54c-14.83,0-29.96-1.17-45.25-3.54-36.45-5.66-71.59-17.68-104.43-35.74-34.57-19.01-64.79-43.78-89.82-73.62-2-2.39-3.98-4.82-5.88-7.23-14.21-17.97-26.39-37.6-36.19-58.32-3.44-7.29-6.6-14.76-9.4-22.21-40.87-108.46-14.22-230.5,64.79-296.77l11.49-9.64,129.64,154.56-22.99,19.28-109.96-131.1c-60.7,60.05-79.34,161.7-44.9,253.11,2.52,6.7,5.36,13.41,8.45,19.95,8.82,18.66,19.79,36.34,32.6,52.54,1.72,2.18,3.51,4.38,5.32,6.54,86.28,102.84,241.35,132.99,334.39,68.14l-188.82-225.06,22.98-19.28,208.53,248.56-11.49,9.64c-39,32.72-91.74,50.17-149.08,50.17Z"/>
      <rect class="cls-2" x="267.36" y="410.5" width="185.27" height="30" transform="translate(-189.22 330.6) rotate(-39.96)"/>
      <path class="cls-2" d="M472.29,588.27c-13.05,0-26.43-1.16-39.98-3.53-28.84-5.03-56.73-15.1-82.88-29.92-27.51-15.58-51.67-35.67-71.83-59.69-39.46-47.03-60.18-105.54-58.33-164.75,1.78-57.32,25.04-108.85,63.81-141.38l19.28,22.98c-32.24,27.05-51.59,70.54-53.11,119.33-1.61,51.84,16.62,103.17,51.33,144.54,70.79,84.37,197.68,108.83,266.23,51.31l19.28,22.98c-29.7,24.92-69.84,38.13-113.8,38.13Z"/>
      <rect class="cls-2" x="318.11" y="454.5" width="207.78" height="30" transform="translate(-82.3 849.23) rotate(-85.03)"/>
      <path class="cls-3" d="M379.54,526.87c-3.79,0-7.54-1.72-9.99-4.98-4.15-5.51-3.05-13.35,2.46-17.51,21.19-15.97,42.69-33.07,63.9-50.83,65.92-55.24,123.52-112.22,162.18-160.44,45.1-56.24,45.87-77.82,43.61-80.52-1.94-2.32-19.96-5.46-72.74,21.37-45.53,23.15-103.12,61.49-162.17,107.97-5.42,4.27-13.28,3.33-17.55-2.09-4.27-5.42-3.33-13.28,2.09-17.55,60.3-47.46,119.36-86.74,166.3-110.61,54.7-27.82,88.47-32.77,103.23-15.15,16.07,19.17,1.92,55.87-43.26,112.21-39.66,49.46-98.48,107.69-165.63,163.96-21.54,18.04-43.37,35.41-64.91,51.63-2.25,1.7-4.89,2.52-7.51,2.52Z"/>
      <rect class="cls-2" x="317.5" y="258.63" width="30" height="197.73" transform="translate(-52.26 658.03) rotate(-85.07)"/>
      <rect class="cls-2" x="385.86" y="279.7" width="30" height="100" transform="translate(-118.14 334.82) rotate(-40)"/>
      <path class="cls-2" d="M620,459.75c-14.2,0-25.75-11.55-25.75-25.75s11.55-25.75,25.75-25.75,25.75,11.55,25.75,25.75-11.55,25.75-25.75,25.75ZM620,423.75c-5.65,0-10.25,4.6-10.25,10.25s4.6,10.25,10.25,10.25,10.25-4.6,10.25-10.25-4.6-10.25-10.25-10.25Z"/>
      <path class="cls-3" d="M659,507c-9.37,0-17-7.63-17-17s7.63-17,17-17,17,7.63,17,17-7.63,17-17,17Z"/>
      <path class="cls-3" d="M182.1,539.19c-1.99,0-3.99-.59-5.76-1.82-.46-.32-.89-.68-1.28-1.07l-2.14-2.13c-3.04-2.91-3.85-7.37-2.17-12.05.53-1.46,1.35-2.74,2.38-3.77l7.72-8.86c2.84-3.74,8.69-6.17,17.83-3.12,3.44,1.15,5.93,4.15,6.42,7.75l.42,3.07c.43,3.17-.76,6.35-3.17,8.46-1.75,1.53-3.97,2.35-6.23,2.36l-6.22,7.42c-1.98,2.45-4.87,3.75-7.8,3.75ZM199.66,523.77s-.03.04-.05.07c.02-.02.03-.04.05-.07ZM196.9,519.61s0,0,0,0c0,0,0,0,0,0ZM196.91,519.6s0,0,0,0c0,0,0,0,0,0Z"/>
      <path class="cls-3" d="M133.42,613.83c-3.79,0-6.27-2.18-7.08-3.01-2.14-2.21-4.16-6.14-1.63-12.35.01-.03.03-.06.04-.09l6.05-14.46c.71-1.82,1.96-3.41,3.59-4.53,1.38-.95,3.56-1.9,6.51-1.7l3.94-.36c.77-.07,1.54-.05,2.31.07,3.87.58,7.02,3.46,7.94,7.27,1.12,4.64-1.16,7.75-3.09,9.54l-1.4,10.23c-.01.08-.02.16-.04.24-.8,4.92-4.96,8.42-9.8,8.51l-4.84.35c-.88.21-1.72.3-2.49.3ZM133.81,613.61h0,0ZM133.01,613.54c.27.04.54.06.79.07-.26-.01-.53-.04-.79-.07ZM133,613.54s0,0,0,0c0,0,0,0,0,0ZM132.99,613.54s0,0,0,0c0,0,0,0,0,0ZM132.98,613.54s0,0,0,0c0,0,0,0,0,0ZM132.97,613.54s0,0,0,0c0,0,0,0,0,0ZM132.96,613.54s0,0,0,0c0,0,0,0,0,0ZM132.95,613.54s0,0,0,0c0,0,0,0,0,0ZM152.6,589.17c0,.19,0,.39-.02.58.01-.19.02-.38.02-.58ZM152.6,589.16h0s0,0,0,0ZM152.6,589.15h0s0,0,0,0ZM152.6,589.14h0s0,0,0,0ZM152.6,589.13h0s0,0,0,0ZM149.28,588.81s0,0,0,0c0,0,0,0,0,0Z"/>
      <path class="cls-3" d="M192.27,649.1c-2.38,0-4.76-.73-6.74-2.17-1.2-.87-4.7-3.88-4.74-9.21-1.49-5.26.8-11.06,5.69-13.81l15.18-8.66c2.66-1.53,5.76-1.92,8.75-1.12,2.14.57,4.62,2.14,6.63,3.88l.56.28c2.02,1.01,3.69,2.59,4.81,4.55,3.64,6.37-.4,13.95-.57,14.27-1.76,3.23-4.66,5.48-8.01,6.28l-18.35,5.26h0c-1.05.3-2.13.45-3.21.45ZM197.4,643.96s0,0,0,0c0,0,0,0,0,0ZM197.41,643.95s0,0,0,0c0,0,0,0,0,0ZM182.27,642.13s0,0,0,0c0,0,0,0,0,0ZM182.27,642.12s0,0,0,0c0,0,0,0,0,0ZM182.26,642.11s0,0,0,0c0,0,0,0,0,0ZM182.26,642.1s0,0,0,0c0,0,0,0,0,0ZM182.25,642.09s0,0,0,0c0,0,0,0,0,0ZM182.25,642.08s0,0,0,0c0,0,0,0,0,0ZM182.24,642.07s0,0,0,0t0,0ZM213.09,635.01s-.06.03-.09.05h-.03s.08-.03.11-.05ZM202.58,634.15s0,.01,0,.01l.05-.03h-.05ZM201.34,630.81c.05.24.11.48.18.71l.23-.13c-.13-.2-.27-.39-.41-.58ZM202.02,629.6s0,0,0,0c0,0,0,0,0,0Z"/>
      <path class="cls-3" d="M431.02,304.73c-2.27,0-4.49-.87-6.17-2.45-1.61-1.52-2.6-3.59-2.78-5.8l-.51-6.38c-.67-3.13.28-6.25,1.4-7.95.78-1.19,1.81-2.14,2.98-2.82l12.68-8.79c1.73-1.37,3.92-2.12,6.24-2.05,2.35.05,6.27,1.32,8.96,3.4l.02-.02,3.15,2.39c.55.41,1.04.89,1.48,1.42,2.34,2.82,2.73,6.8.97,10.02-2.85,5.22-7.98,4.77-11.23,4.38l-7.24,6.08s-.03.05-.04.08c-2.15,4.37-3.71,7.53-8.33,8.36-.53.09-1.06.14-1.58.14ZM451.14,287.61s-.05.04-.08.06h-.02s.06-.04.09-.06ZM451.15,287.61s0,0,0,0c0,0,0,0,0,0ZM451.16,287.6s0,0,0,0c0,0,0,0,0,0ZM451.16,283.15c-.31.39-.65.76-1.02,1.09.35-.32.7-.68,1.02-1.09ZM451.17,283.14s0,0,0,0c0,0,0,0,0,0ZM451.18,283.13s0,0,0,0c0,0,0,0,0,0Z"/>
      <path class="cls-3" d="M531.02,236.46c-2.43,0-4.86-.88-6.75-2.64-.48-.44-.9-.93-1.28-1.46l-2.17-3.07c-.07-.1-.14-.21-.21-.31-2.29-3.54-2.11-8.29.45-11.56,1.09-1.39,2.51-2.41,4.09-3l14.78-7.62c1.72-1.03,3.73-1.52,5.82-1.39,4.05.24,8.02,3.01,9.74,4.58l.02-.02,2.81,2.71c.6.58,1.11,1.23,1.54,1.94,1.92,3.21,1.75,7.25-.43,10.29-3.6,5.01-8.75,3.94-12.21,3.2l-10.56,6.62c-1.68,1.16-3.66,1.73-5.63,1.73ZM550.99,221.83s0,0,0,0c0,0,0,0,0,0ZM551,221.82s0,0,0,0c0,0,0,0,0,0ZM551.01,221.81s0,0,0,0c0,0,0,0,0,0ZM551.01,221.81s0,0,0,0c0,0,0,0,0,0ZM551.02,221.8s0,0,0,0c0,0,0,0,0,0ZM551.03,221.79s0,0,0,0c0,0,0,0,0,0Z"/>
      <path class="cls-3" d="M651.15,207.5c-1.74,0-3.46-.42-5-1.25l-6.06-3.26c-3.82,1.01-8.77,1.67-12.57-3.03-2.61-3.22-3.02-7.73-1.05-11.38.35-.64.76-1.24,1.24-1.8l5.77-6.74c2.97-3.76,7.82-4.55,11.73-3.72l11.7.87c4.42.26,8.1,2.63,9.89,6.36,1.35,2.82,2.13,7.31-1.79,12.69-.11.17-.23.33-.35.49l-4.5,5.88c-1.47,2.17-3.64,3.77-6.1,4.48-.95.27-1.93.41-2.91.41ZM636.48,201.04c.06.03.11.06.17.09l-.17-.09ZM665.53,195.4h0s0,0,0,0ZM665.53,195.39s0,0,0,.01c0,0,0,0,0-.01ZM650.35,191.68s0,0,0,0c0,0,0,0,0,0Z"/>
      <path class="cls-3" d="M639.78,298.18c-.22,0-.45,0-.68-.02-1.61-.1-3.12-.61-4.43-1.44l-9.37-3.41c-.74-.27-1.44-.63-2.09-1.07-2.41-1.65-3.92-4.34-4.07-7.26-.24-4.67,2.63-7.16,4.93-9.16,1.03-.89,2.35-2.01,3.53-3.01,1.01-.85,1.9-1.6,2.32-1.98.11-.11.23-.22.35-.33l9-8c.16-.14.32-.28.49-.41,1.27-.98,2.58-1.92,3.93-2.8.79-2.16,2.35-3.96,4.38-5.05,5.52-2.96,10.2-1.12,12.74,1.58,5.76,6.13,1.23,13.47-3.15,20.57-.26.42-.49.79-.66,1.07-.11.24-.23.47-.36.7l-7.89,13.81c-2.15,4.13-5.16,6.22-8.97,6.22ZM630.74,291.77s0,0,0,0c0,0,0,0,0,0ZM628.74,272.23h0s0,0,0,0ZM628.75,272.23s0,0,0,0c0,0,0,0,0,0ZM628.75,272.22s0,0,0,0c0,0,0,0,0,0Z"/>
      <path class="cls-3" d="M554.37,404.81c-4,0-8.14-1.09-10.66-2.21v.03s-5.16-2.38-5.16-2.38c-1-.46-1.93-1.04-2.79-1.73-4.18-3.38-5.93-8.94-4.43-14.09.91-3.15,3.71-8.59,12.23-9.73.73-.1,1.7-.21,2.73-.33l7.87-9.82c-.38-7.9,5.02-11.62,6.75-12.6,4.76-2.7,10.71-2.21,14.97,1.23.37.3.72.61,1.06.95l5,5h-.01c4.07,4.27,6.16,12.61,4.25,17.84-.73,2.01-1.92,3.76-3.41,5.16l-16.73,17.6c-1.87,2.22-4.4,3.81-7.34,4.58-1.35.36-2.82.51-4.3.51ZM544.23,384.56s0,0,0,0c0,0,0,0,0,0ZM544.24,384.54s0,0,0,0c0,0,0,0,0,0ZM544.25,384.53s0,0,0,0c0,0,0,0,0,0ZM545.21,383.04c-.34.46-.66.95-.96,1.49.29-.52.61-1.01.96-1.49Z"/>
      <path class="cls-3" d="M434.53,511.17c-3.66,0-9.4-1.3-13.58-3.93l-.02.03-5.09-3.18c-1-.63-1.93-1.38-2.75-2.23-3.97-4.14-5.09-10.26-2.84-15.54,1.37-3.22,5.05-8.63,14.23-8.78.83-.01,1.94-.02,3.11-.01l11.32-10.8c.11-.56.22-1.11.31-1.56.29-1.47.58-2.91.82-3.98.54-2.5,2.19-10.1,10.57-12.46,5.18-1.46,10.74.12,14.4,4.06,1.52,1.65,2.64,3.63,3.25,5.79l1.78,6.23c1.05,3.02,1.03,6.16,1.01,9.24-.03,5.46-.04,7.96-2.11,11.42-.9,1.5-2.03,2.79-3.34,3.83l-20.35,17.62c-2.62,2.49-6.11,4-9.91,4.24-.26.02-.53.02-.81.02ZM423.86,488.06s0,.01-.01.02c0,0,0-.01.01-.02ZM423.88,488.04s0,.01-.01.02c0,0,0-.01.01-.02ZM423.89,488.02s0,0,0,.01c0,0,0,0,0-.01ZM423.9,488s0,0,0,0c0,0,0,0,0,0ZM441.98,463.79s-.04.04-.07.06l.07-.06Z"/>
    </g>
  </g>
</svg>